<svg width="120" height="21" viewBox="0 0 120 21" fill="none" xmlns="http://www.w3.org/2000/svg">
<g clip-path="url(#clip0_359_6118)">
<path fill-rule="evenodd" clip-rule="evenodd" d="M27.1808 0C21.756 0 17.3589 4.5666 17.3587 10.1996H22.4709C22.4712 7.50311 24.5834 5.30867 27.1808 5.30867C29.7773 5.30867 31.8901 7.50311 31.8901 10.1996H37.0023C37.0023 4.5666 32.6047 0 27.1808 0Z" fill="#0092FF"/>
<path fill-rule="evenodd" clip-rule="evenodd" d="M31.8903 10.2005C31.8903 12.8969 29.7775 15.0914 27.1807 15.0914C24.5837 15.0914 22.4708 12.8969 22.4708 10.2005L17.3586 10.2002C17.3586 15.8332 21.7562 20.4001 27.1807 20.4001C32.6052 20.4001 37.0023 15.8335 37.0023 10.2005H31.8903Z" fill="#0092FF"/>
<path fill-rule="evenodd" clip-rule="evenodd" d="M71.3282 11.1277L71.3315 8.70756L71.3219 0.447998H66.1779L66.1728 11.1277C66.1728 16.1612 70.1017 20.2414 74.9487 20.2414C75.1651 20.2414 75.3839 20.2334 75.6038 20.2166C76.2679 20.1668 76.908 20.0361 77.5189 19.8389C73.934 18.6932 71.3282 15.2267 71.3282 11.1277Z" fill="#0092FF"/>
<path fill-rule="evenodd" clip-rule="evenodd" d="M78.5479 0.447021V10.9469C78.5479 12.0166 78.1491 12.9924 77.5051 13.7035C76.9153 14.356 76.1199 14.7864 75.2298 14.8533C75.1363 14.8601 75.042 14.8641 74.9494 14.8641C72.9653 14.8641 71.3512 13.1874 71.3512 11.127V11.1123V11.0973L71.3323 8.70689L71.3289 11.127C71.3289 15.2257 73.9347 18.6922 77.5199 19.8382C81.1534 18.666 83.7256 15.058 83.7256 10.9469V0.447021H78.5479Z" fill="#0092FF"/>
<path fill-rule="evenodd" clip-rule="evenodd" d="M9.56874 7.93769L6.9855 7.38833C6.03342 7.19382 5.52376 6.67952 5.52376 5.97102C5.52376 5.10277 6.35665 4.34123 7.58002 4.34123C9.1269 4.34123 10.0276 5.29758 10.2657 6.62677L14.9906 5.56342C14.7017 3.36629 12.543 0 7.54625 0C3.48424 0 0.441842 2.87057 0.441842 6.36094C0.441842 9.12481 2.2095 11.1625 5.81264 12.0127L8.14134 12.5621C9.55171 12.8987 9.9598 13.5895 9.9598 14.2279C9.9598 14.936 9.33094 15.893 7.78405 15.893C5.98262 15.893 4.89491 14.5644 4.77571 13.2529L0 14.3164C0.169984 16.4422 2.32841 20.2693 7.85216 20.2693C12.7811 20.2693 15.2285 17.0448 15.2285 13.8557C15.2285 10.9851 13.274 8.71722 9.56874 7.93769Z" fill="#0092FF"/>
<path fill-rule="evenodd" clip-rule="evenodd" d="M57.6119 7.93769L55.0287 7.38833C54.0769 7.19382 53.5669 6.67952 53.5669 5.97102C53.5669 5.10277 54.3999 4.34123 55.6233 4.34123C57.1701 4.34123 58.0708 5.29758 58.3089 6.62677L63.0339 5.56342C62.7449 3.36629 60.5862 0 55.5894 0C51.5274 0 48.4851 2.87057 48.4851 6.36094C48.4851 9.12481 50.2527 11.1625 53.8559 12.0127L56.1845 12.5621C57.5949 12.8987 58.0027 13.5895 58.0027 14.2279C58.0027 14.936 57.3742 15.893 55.8273 15.893C54.0258 15.893 52.9381 14.5644 52.8189 13.2529L48.0432 14.3164C48.2131 16.4422 50.3716 20.2693 55.8953 20.2693C60.8241 20.2693 63.2716 17.0448 63.2716 13.8557C63.2716 10.9851 61.3173 8.71722 57.6119 7.93769Z" fill="#0092FF"/>
<path fill-rule="evenodd" clip-rule="evenodd" d="M92.3779 3.2951H92.327V0.477872H87.1771V19.8436H92.4971V11.3569C92.4971 7.7601 94.3156 5.86387 96.9161 5.86387C97.1539 5.86387 97.9357 5.86387 98.6494 6.00593V0.46019C98.2586 0.354094 97.5958 0.265381 97.1879 0.265381C95.2673 0.265381 93.3974 1.07998 92.3779 3.2951Z" fill="#0092FF"/>
<path fill-rule="evenodd" clip-rule="evenodd" d="M40.2922 12.5623H45.442V7.8606H40.2922V12.5623Z" fill="#0092FF"/>
<path fill-rule="evenodd" clip-rule="evenodd" d="M111.602 8.26064H108.788H105.855C106.223 7.37982 106.833 6.63265 107.598 6.11027C107.768 5.99428 107.946 5.88878 108.131 5.79588C108.75 5.48418 109.444 5.30915 110.177 5.30915C111.126 5.30915 112.008 5.60316 112.748 6.10607C113.516 6.62845 114.131 7.37652 114.5 8.26064H111.602ZM119.992 9.87438C119.826 4.39218 115.497 0 110.178 0C105.786 0 102.068 2.99435 100.811 7.12428C100.554 8.00602 100.409 8.9381 100.394 9.90314C100.381 10.0005 100.373 10.0989 100.373 10.1999C100.373 15.8332 104.771 20.3998 110.195 20.3998C111.738 20.3998 113.198 20.0293 114.497 19.3705C114.701 19.2671 114.901 19.1544 115.097 19.0369C115.143 19.01 115.188 18.9839 115.233 18.956C115.305 18.9114 115.554 18.7469 115.608 18.7099C115.674 18.665 115.739 18.6186 115.803 18.5722C115.86 18.5304 116.094 18.3539 116.153 18.3068C116.214 18.259 116.273 18.2101 116.333 18.1606C116.386 18.1157 116.44 18.071 116.494 18.0252C116.56 17.9676 116.624 17.9083 116.689 17.8489C116.734 17.8081 116.779 17.768 116.823 17.7264C116.928 17.6272 117.03 17.5261 117.13 17.4224C117.131 17.4216 117.132 17.4206 117.133 17.4198L113.515 13.6656C113.196 13.9956 112.831 14.2788 112.432 14.5033C112.431 14.5036 112.431 14.5039 112.43 14.5042C112.364 14.5414 112.297 14.577 112.229 14.6106C112.226 14.6122 112.224 14.6134 112.221 14.6148C112.155 14.6474 112.089 14.6786 112.021 14.7083C112.016 14.7107 112.009 14.7128 112.004 14.7155C111.939 14.7434 111.874 14.7703 111.808 14.7953C111.797 14.7995 111.786 14.8031 111.774 14.8072C111.714 14.8297 111.653 14.8519 111.591 14.872C111.575 14.8768 111.559 14.8806 111.544 14.8854C111.486 14.9038 111.427 14.9218 111.368 14.9372C111.349 14.9424 111.33 14.9462 111.311 14.951C111.255 14.9654 111.198 14.9796 111.141 14.9918C111.117 14.9969 111.093 15.0005 111.07 15.005C111.017 15.0155 110.964 15.0263 110.91 15.0347C110.874 15.0404 110.838 15.0443 110.801 15.0491C110.759 15.0547 110.718 15.0613 110.675 15.0659C110.626 15.0709 110.576 15.0739 110.526 15.0775C110.496 15.0797 110.467 15.0829 110.437 15.0847C110.357 15.0889 110.276 15.0911 110.195 15.0911C110.192 15.0911 110.189 15.0907 110.187 15.0907C110.184 15.0907 110.181 15.0911 110.178 15.0911C109.018 15.0911 107.956 14.6526 107.135 13.9282C106.522 13.3882 106.043 12.6895 105.76 11.8935H105.777H114.614H119.806C119.807 11.892 119.829 11.8908 119.863 11.8896C119.952 11.3396 120 10.7759 120 10.2002C120 10.0911 119.995 9.98287 119.992 9.87438Z" fill="#0092FF"/>
</g>
<defs>
<clipPath id="clip0_359_6118">
<rect width="120" height="20.4" fill="white"/>
</clipPath>
</defs>
</svg>
